<svg width="32" height="32" viewBox="0 0 32 32" fill="none" xmlns="http://www.w3.org/2000/svg">
  <!-- Background circle -->
  <circle cx="16" cy="16" r="15" fill="#FFF8E1" stroke="#FFA500" stroke-width="1"/>
  
  <!-- Dog face -->
  <ellipse cx="16" cy="15" rx="9" ry="8" fill="#FFF8E1"/>
  
  <!-- Ears -->
  <ellipse cx="9" cy="8" rx="3" ry="5" fill="#FFA500" transform="rotate(-25 9 8)"/>
  <ellipse cx="23" cy="8" rx="3" ry="5" fill="#FFA500" transform="rotate(25 23 8)"/>
  <ellipse cx="10" cy="9" rx="2" ry="4" fill="#FF8C00" transform="rotate(-25 10 9)"/>
  <ellipse cx="22" cy="9" rx="2" ry="4" fill="#FF8C00" transform="rotate(25 22 9)"/>
  
  <!-- Eyes -->
  <circle cx="13" cy="13" r="1.5" fill="#333"/>
  <circle cx="19" cy="13" r="1.5" fill="#333"/>
  <circle cx="13.5" cy="12.5" r="0.5" fill="#FFF"/>
  <circle cx="19.5" cy="12.5" r="0.5" fill="#FFF"/>
  
  <!-- Nose -->
  <ellipse cx="16" cy="16" rx="1.5" ry="1" fill="#333"/>
  
  <!-- Mouth -->
  <path d="M 14 18 Q 16 20 18 18" stroke="#333" stroke-width="1" fill="none" stroke-linecap="round"/>
  
  <!-- Tongue -->
  <ellipse cx="16" cy="19" rx="2" ry="1" fill="#FF69B4"/>
  
  <!-- Spots -->
  <circle cx="11" cy="17" r="1" fill="#FFA500" opacity="0.7"/>
  <circle cx="20" cy="15" r="0.8" fill="#FFA500" opacity="0.7"/>
</svg>
